<svg xmlns="http://www.w3.org/2000/svg" width="600" height="1077.3" viewBox="0 0 5016.516 1077.3">
  <g id="amber_group_horizontal_with_tag_line" data-name="amber group horizontal with tag line" transform="translate(-723.42 -1613.15)">
    <path id="Path_42" data-name="Path 42" d="M1541.112,2077.714h-74.358L1147.04,1758.007,827.327,2077.714H752.976c-26.006,0-39.035-31.449-20.637-49.847l1.642-1.642,340.638-340.645,72.429-72.429,72.429,72.429,340.638,340.645,1.642,1.642C1580.147,2046.264,1567.118,2077.714,1541.112,2077.714Z" transform="translate(-0.08 0)" fill="#ee5f00"/>
    <path id="Path_43" data-name="Path 43" d="M1541.245,2300.285c26.014,0,39.043,31.449,20.644,49.847l-1.863,1.863-340.638,340.645-72.429,72.429-72.429-72.429L733.893,2352l-1.863-1.863c-18.391-18.391-5.369-49.847,20.644-49.847h74.359l319.92,319.92,223.127-223.127H1214.321l84.508-97.308h147.222Z" transform="translate(0 -180.915)" fill="#005293"/>
    <path id="Path_44" data-name="Path 44" d="M1399.445,2299.78l-84.508,97.308H1225.23l84.5-97.308Z" transform="translate(-132.22 -180.917)" fill="#ee5f00"/>
  </g>
</svg>
